<?xml version="1.0" encoding="utf-8"?>
<!DOCTYPE svg PUBLIC "-//W3C//DTD SVG 1.0//EN" "http://www.w3.org/TR/2001/REC-SVG-20010904/DTD/svg10.dtd">
<svg version="1.0" xmlns="http://www.w3.org/2000/svg" width="1536px" height="1024px" viewBox="0 0 1536 1024" preserveAspectRatio="xMidYMid meet">
 <g fill="#012b66">
  <path d="M0 512 l0 -512 768 0 768 0 0 512 0 512 -768 0 -768 0 0 -512z m514.5 296 c2.5 -1.2 6.9 -4.4 9.8 -7 l5.1 -4.7 -2.9 -1.6 c-2.8 -1.4 -3.1 -1.4 -6.2 1.4 -1.8 1.5 -5.2 3.3 -7.5 4 -5.6 1.5 -17.4 0.7 -21.5 -1.4 -4.4 -2.3 -8.3 -9.3 -9 -16.2 l-0.6 -5.5 24.7 0 24.6 0 0 -2.2 c0 -4.1 -2.8 -15.6 -4.9 -20.3 -3.8 -8.7 -14.7 -15.9 -23.7 -15.8 -17.6 0.1 -32.9 21.9 -29.3 41.6 2.6 14.5 10.5 24.3 23.4 28.9 6.1 2.2 11.7 1.8 18 -1.2z m75 -1 c3.9 -2.6 7.1 -4 9.3 -4 2.9 0 3.2 0.3 3.2 3 0 2.9 0.1 3 5 3 l5 0 0 -50.5 0 -50.5 -5 0 -5 0 0 8.8 c0 4.8 -0.3 11.7 -0.6 15.3 l-0.7 6.7 -10.1 0.4 c-12 0.5 -17 2.4 -23.4 8.8 -5.4 5.4 -10.7 16.5 -12 25 -2.1 13.9 2.8 27.5 12.2 34 4.7 3.1 6.5 3.7 12.1 3.9 3.1 0.1 5.3 -0.8 10 -3.9z m130.3 -0.6 c4.4 -2.2 9.4 -5.7 12.9 -9 l5.6 -5.6 -2.9 -2.3 c-1.6 -1.4 -3.3 -2.4 -3.8 -2.5 -0.5 0 -3.4 2.7 -6.5 5.9 -5 5.3 -6.2 6 -11.6 7.1 -12.7 2.6 -23.8 -0.5 -28.9 -7.9 -5.2 -7.5 -6 -11.4 -6.1 -29.1 0 -14.4 0.3 -17.4 2.2 -23.6 3.1 -9.7 7.7 -16.3 13.3 -19.1 6 -3.1 19.2 -3.3 24.9 -0.3 4.6 2.3 8.7 6.9 11.5 13.1 l2.2 4.5 4.1 -1.3 c3.9 -1.3 4.1 -1.6 3.2 -4 -4.5 -12 -14.1 -20.3 -27.4 -23.8 -10.2 -2.6 -21.2 1.3 -31.5 11.1 -8.9 8.4 -13.8 19.1 -16.1 34.5 -2.8 19.7 6.5 43.3 20.4 51.7 10.1 6.1 22.6 6.3 34.5 0.6z m392.4 0.8 c2.3 -1.2 6.9 -4.2 10.1 -6.8 l5.9 -4.6 -2.3 -2.4 -2.3 -2.4 -2.5 2.4 c-4.5 4.2 -8.6 5.6 -15.9 5.6 -8.7 0 -12.4 -1.3 -15.5 -5.4 -3.4 -4.3 -4.7 -9.6 -4.7 -18.6 0 -13.1 3.5 -22.1 10.5 -26.8 4.8 -3.3 15.7 -3.1 20.8 0.3 2 1.4 3.7 3 3.7 3.5 0 1.7 2.4 1 5.3 -1.3 l2.7 -2.3 -4.1 -4.2 c-5.1 -5.1 -13.4 -9.2 -18.6 -9.2 -9.7 0 -21.1 9.3 -27.2 22 -3.4 7 -3.6 8.1 -3.5 17 0 11.5 2.4 18.4 8.5 25.4 8.8 10 18.9 12.7 29.1 7.8z m-749.2 -42.2 l0 -44 3.3 0 3.2 0 7.8 24.8 c4.4 13.6 10.8 32.6 14.4 42.4 l6.5 17.6 3.9 0.4 3.9 0.4 2.4 -6.6 c1.4 -3.6 5 -13.2 8.1 -21.5 11.8 -31.2 18.3 -49.1 18.9 -51.7 0.5 -2.4 1.1 -2.8 4.1 -2.8 l3.5 0 0 16.4 c0 9 -0.4 16.6 -0.9 16.8 -0.4 0.2 -1 11.8 -1.2 25.8 l-0.4 25.5 4.4 0.3 c2.8 0.2 4.7 -0.1 5.2 -1 0.5 -0.7 0.9 -5.5 0.9 -10.5 0 -7.6 -0.3 -9.3 -1.5 -9.3 -1.3 0 -1.5 -3.4 -1.5 -24.5 0 -21.1 0.2 -24.5 1.5 -24.5 1.1 0 1.5 -1.2 1.5 -4.5 0 -2.5 -0.4 -4.5 -1 -4.5 -0.5 0 -1 -2.2 -1 -5 0 -2.7 0.5 -5 1 -5 0.6 0 1 -1.6 1 -3.5 0 -2.4 -0.5 -3.5 -1.5 -3.5 -0.9 0 -1.5 -0.9 -1.5 -2.5 0 -2.4 -0.2 -2.5 -6.9 -2.5 -4.3 0 -7.2 0.5 -7.8 1.3 -0.5 0.6 -1.7 3.9 -2.8 7.2 -5.4 17.2 -19 55.8 -21.7 61.3 -2.9 6.1 -3.1 6.3 -6.5 6 -3.4 -0.3 -3.6 -0.5 -6.9 -9.3 -1.8 -4.9 -7.7 -21.4 -13.1 -36.5 -5.3 -15.1 -10.1 -28.1 -10.6 -28.7 -1.1 -1.6 -12.4 -1.7 -16.1 -0.3 l-2.6 1 0 49.5 0 49.5 5 0 5 0 0 -44z m280.5 9.2 l0.3 -34.3 -5.2 0.3 -5.1 0.3 -0.3 33 c-0.1 18.1 0 33.6 0.3 34.3 0.3 0.9 2 1.2 5.1 1 l4.5 -0.3 0.4 -34.3z m158.4 31.8 c12.8 -6.5 20 -21.3 18.9 -38.7 -0.6 -9.5 -5.2 -19.1 -11.1 -23.5 -5.9 -4.3 -14 -7.8 -17.9 -7.8 -4.9 0 -13.2 4.3 -18.2 9.5 -8.8 9 -12.8 21.7 -10.7 33.2 2.3 12.7 9.4 22.6 19.6 27.5 6.9 3.4 12.6 3.3 19.4 -0.2z m53.1 -22.5 c0 -16.5 0.4 -25.5 1 -25.5 0.6 0 2.5 -1.4 4.2 -3.1 4.5 -4.3 9 -5.9 16.4 -5.9 5.7 0 6.6 0.3 9.8 3.4 l3.6 3.3 0 26.7 0 26.7 4.8 -0.3 4.7 -0.3 0 -24.5 c0 -29.8 -0.4 -32.9 -5.2 -37.7 -4.6 -4.5 -11.6 -7.6 -17 -7.5 -4.8 0 -16.3 5.6 -16.3 7.9 0 1 -1 1.3 -3.7 1.1 -3.6 -0.3 -3.8 -0.5 -4.1 -4 -0.3 -3.7 -0.4 -3.8 -4.3 -3.8 l-3.9 0 0 33.9 0 34 2.3 0.4 c1.2 0.2 3.4 0.5 5 0.6 l2.7 0.1 0 -25.5z m76 0.3 c0 -13.9 0.4 -25.8 0.8 -26.4 0.4 -0.6 3 -2.7 5.8 -4.6 4.4 -3 6.4 -3.6 12.8 -4.2 8.4 -0.8 12.9 0.7 14.1 4.4 0.4 1.1 0.5 13.6 0.4 27.8 -0.2 14.1 0 26.3 0.5 27 0.4 0.6 2.7 1.2 5.2 1.2 l4.4 0 0.1 -11.2 c0.3 -25.3 -0.3 -42.2 -1.8 -46.2 -2.8 -8.1 -11.1 -13.9 -19.8 -13.9 -6.6 0 -14.1 3.4 -14.9 6.8 -0.5 2.1 -1.2 2.5 -4.1 2.5 -3.3 0 -3.5 -0.2 -3.5 -3.5 0 -3.5 0 -3.5 -4.5 -3.5 -4 0 -4.7 0.3 -5.5 2.6 -1.1 2.8 -1.4 64.7 -0.3 65.7 0.3 0.4 2.8 0.7 5.5 0.7 l4.8 0 0 -25.2z m105.5 22.3 c2.8 -1.6 7 -5 9.4 -7.5 l4.4 -4.5 -2.7 -1.2 c-2.4 -1.1 -2.9 -1 -5.4 1.4 -3.9 3.8 -7.3 4.7 -16.9 4.7 -10.3 0 -14.4 -1.7 -18.1 -7.3 -1.9 -2.9 -2.7 -5.6 -3 -10.3 l-0.4 -6.4 24.1 0.7 24.1 0.6 0 -4.1 c0 -10.6 -5.2 -23.6 -11.4 -28.4 -7.1 -5.6 -12.8 -8 -17.7 -7.5 -9.8 0.9 -20.6 9.4 -25.5 20.2 -3.1 6.7 -4.1 17.2 -2.4 24.6 4.8 21 26.2 33.8 41.5 25z m137.6 -1.1 c2.5 0 5.3 -0.6 6.3 -1.3 1.7 -1.2 1.7 -1.5 -0.4 -5 -2.1 -3.5 -2.4 -3.7 -7.6 -3.7 -4.5 0 -5.5 -0.4 -6.5 -2.2 -1.7 -3.2 -0.5 -46.8 1.3 -47.9 0.7 -0.5 3.9 -0.9 7.1 -0.9 l5.7 0 0 -3.5 0 -3.6 -7.5 0.7 -7.5 0.7 0 -6.7 c0 -5 -0.4 -6.8 -1.5 -7.2 -2.1 -0.8 -4.5 1.4 -4.5 4 0 3.5 -3.7 8.6 -6.2 8.6 -3.8 0 -4.9 1.3 -4.2 4.8 0.5 2.5 1.1 3.2 3.1 3.2 l2.4 0 -0.3 23.8 c-0.3 23.7 -0.3 23.7 2.2 28.2 2.9 5.2 8.5 9.4 11.5 8.6 1.1 -0.3 4.1 -0.6 6.6 -0.6z m-528.1 -90.5 l0 -6.5 -6 0 -6 0 0 4.9 c0 7.6 0.4 8.1 6.6 8.1 l5.4 0 0 -6.5z m138.6 -87.6 c9.2 -2.3 19.9 -7.7 35.2 -17.8 32.3 -21.3 52.8 -38.9 73 -62.4 9.3 -10.8 32.9 -41.3 43 -55.5 2.6 -3.7 6 -4.1 12.7 -1.7 2.2 0.8 6.9 1.4 10.4 1.5 5.3 0 7.3 -0.5 12.5 -3.2 12.7 -6.8 19 -16.8 19 -30.3 0 -9.4 -3.1 -17.3 -9.7 -24.2 -6.2 -6.6 -10.5 -9.3 -17.2 -10.8 -14 -3.3 -29.3 5.2 -36.3 20.3 -3.5 7.4 -3.6 18.2 -0.3 25.6 3.9 8.9 3.4 10.3 -9.4 27.6 -26.9 36.2 -60.1 70.8 -87.1 90.7 -15.1 11.1 -34.2 21.5 -45.9 24.9 -8.1 2.3 -30.8 1.5 -40.5 -1.5 -26.6 -8.2 -93 -63.2 -145.2 -120.3 -15.6 -17.1 -39 -44.3 -40.8 -47.6 -0.9 -1.7 -1.4 -5.7 -1.4 -10.7 -0.1 -9.7 1.6 -13.3 10 -21.8 27.1 -27.4 69.9 -40.8 107.1 -33.6 25.6 4.9 46.7 16 62.4 32.7 13.3 14 18.9 26 21.3 44.7 0.8 6.1 1.4 9.6 1.5 7.8 0.3 -10.3 7.2 -27 15.6 -38.1 10.9 -14.4 29.8 -27 49.1 -32.8 11 -3.2 30.2 -4.4 42.1 -2.4 15.2 2.4 33.5 10.1 43.5 18.3 l5.4 4.4 3.9 -3.4 c10 -8.7 24 -13.2 43.6 -14 l13.7 -0.6 2.6 -8.8 c3.3 -10.9 4.5 -21.4 4.7 -38.9 0.2 -38.3 -13.8 -71.9 -40.9 -98.1 -15.2 -14.8 -22.3 -20 -35.7 -26.5 -20.1 -9.7 -36.6 -13.8 -55.5 -13.7 -22.1 0 -52.9 9.1 -70.7 21 -6.8 4.5 -24.8 21.6 -28.8 27.3 -2.3 3.3 -3.4 4 -6 4 -2.8 0 -3.9 -0.8 -8.3 -6.8 -8.7 -11.7 -18.4 -19.3 -35.9 -28.1 -17.3 -8.6 -31.3 -13.2 -47.8 -15.6 -13.5 -2 -22.6 -1.9 -34.3 0.4 -27.1 5.3 -50.6 17.8 -71.1 37.9 -16.2 15.9 -27 33.2 -34.4 55.2 -6 17.7 -7.2 25.2 -7.1 45.5 0 19.3 0.1 19.8 6.8 42.3 6 20.1 13.6 33.7 33.8 60.8 47.9 64 130.5 141.2 175.8 164.3 28.4 14.6 41.5 17.1 61.6 12z m-81.9 -114 c4.1 -2.5 9.2 -8.4 10.9 -12.5 3.2 -7.6 0.9 -14.1 -6.4 -17.8 -4.3 -2.2 -5.1 -2.3 -8.6 -1.1 -4.8 1.7 -9.2 5.9 -10.8 10.2 -1.1 3 -1.6 3.3 -5.3 3.3 -3.1 0 -4.7 -0.6 -6.5 -2.5 -4 -4.3 -3.5 -1.8 0.6 2.8 2.2 2.4 4.5 6.2 5.3 8.3 1.5 4.5 4.3 7.9 8.6 10.5 3.4 2.2 7.2 1.8 12.2 -1.2z m-51.7 -56.9 c0 -1.1 -0.7 -2 -1.5 -2 -1.3 0 -1.3 0.3 -0.3 2 0.7 1.1 1.4 2 1.5 2 0.2 0 0.3 -0.9 0.3 -2z m-22.4 -17.5 c-4.1 -5.3 -9.2 -16.7 -11.1 -24.7 -1 -4 -2.1 -7.7 -2.6 -8.2 -0.4 -0.5 -1.3 1 -2 3.4 -2.3 7.7 2.1 17.9 11.8 27.7 6.1 6.1 7.7 6.9 3.9 1.8z m60.4 -21.6 c4.5 -6.9 5.6 -10.7 3.7 -12.6 -1.4 -1.4 -2.1 -0.4 -7.6 10.5 -3.4 6.7 -6.1 12.5 -6.1 12.9 0 1.4 7.2 -6.3 10 -10.8z"/>
  <path d="M485 765.1 c0 -5.2 1.8 -8.9 6.4 -12.8 4 -3.6 9.4 -4.8 16.7 -3.8 8.3 1.2 13.9 7.4 13.9 15.5 l0 4 -12.4 0 c-6.7 0 -15.1 0.3 -18.5 0.6 l-6.1 0.7 0 -4.2z"/>
  <path d="M573.2 798.8 c-5.8 -2.9 -8.4 -13.9 -6.7 -29.2 0.8 -8 5 -14.9 11 -18.3 3.5 -2 5.2 -2.3 13.5 -2.1 l9.5 0.3 -0.3 21 -0.3 21 -4.4 4.3 -4.4 4.2 -7.8 -0.1 c-4.3 0 -8.8 -0.5 -10.1 -1.1z"/>
  <path d="M782.5 797.6 c-4.2 -1.8 -8.3 -6.9 -9.2 -11.4 -0.4 -2 -0.8 -8.2 -0.8 -13.7 0 -9.1 0.3 -10.5 3 -16 4.2 -8.5 7.6 -10.5 17.5 -10.5 6.3 0 8.3 0.4 11 2.3 5.2 3.5 7.2 8.5 7.8 19 0.8 15.6 -3 26 -10.8 29.9 -4.2 2.1 -14.1 2.3 -18.5 0.4z"/>
  <path d="M1006 763 c0 -4.3 3.4 -10.4 7.2 -13.2 2.7 -1.9 4.9 -2.4 11.5 -2.7 7.2 -0.3 8.7 0 11.9 2 4.1 2.5 7.3 8.5 7.4 13.7 l0 3.2 -19 0 -19 0 0 -3z"/>
  <path d="M946 477.5 c-8.5 -3.9 -11.4 -9.1 -11.4 -20.5 0 -10.8 2.2 -15.6 9.1 -19.7 4.3 -2.5 5.8 -2.8 13.4 -2.8 7.8 0 9 0.3 13.4 3 7 4.3 9.5 9.5 9.5 19.7 0 9.6 -2.2 14.6 -8.2 18.5 -3.7 2.5 -5.2 2.8 -13.2 3.1 -6.6 0.1 -10.1 -0.2 -12.6 -1.3z"/>
  <path d="M832 384.4 c-17.1 -3.7 -31 -15.9 -37.7 -33.1 -3.5 -9 -4.4 -28.4 -1.9 -38.3 4.6 -17.7 19.8 -32.7 38.2 -37.5 7.8 -2 25.7 -2 33.8 0.1 24 6.2 39.6 27.1 39.6 52.9 -0.1 17.5 -4.9 29.5 -16.5 41.1 -11.3 11.3 -24.2 16.5 -40.5 16.3 -4.7 0 -11.4 -0.7 -15 -1.5z"/>
  <path d="M640.6 368.9 c-8 -1.3 -15.7 -4.7 -22.6 -9.8 -15.8 -11.9 -23.8 -30.6 -22.7 -53.1 0.6 -11.4 1.9 -16.5 6.5 -25.6 5.8 -11.5 17.8 -21.9 30.8 -26.6 8.3 -3 29.1 -3.7 38.4 -1.3 18 4.6 34.6 21.5 39.4 40.1 2.1 8 2.1 25 0.1 32.9 -2.8 11.1 -8.1 20.3 -16.4 28.6 -8.5 8.4 -15.2 12.2 -25.9 14.5 -7.2 1.5 -19.8 1.7 -27.6 0.3z"/>
 </g>
 <g fill="#ffffff">
  <path d="M493.5 812.2 c-14 -5 -22.4 -16.6 -24 -33.3 -1.4 -13.4 2.7 -26 11.1 -34.2 7.3 -7.1 12.2 -9.1 21.9 -9.2 6.8 0 8.8 0.4 13 2.7 10.1 5.4 14.2 11.3 17 24.6 0.8 3.7 1.5 9.1 1.5 12 l0 5.2 -24.5 0 -24.5 0 0.6 2.8 c1.1 4.7 5.4 11.1 8.4 12.7 7.9 4.1 17.8 2.6 24.3 -3.5 l4.1 -3.8 5.8 2.9 c3.4 1.7 5.8 3.6 5.8 4.5 0 2.5 -11 12.8 -16.5 15.4 -6.6 3.2 -17 3.8 -24 1.2z m25.4 -47.7 c0.2 -0.3 -0.2 -1.7 -0.8 -3.4 -2.9 -6.9 -11 -11 -18.1 -9.1 -4.6 1.2 -12 9 -12 12.7 0 0.8 30.1 0.6 30.9 -0.2z"/>
  <path d="M570.5 813.3 c-3.6 -0.9 -10.1 -6.1 -12.7 -10.1 -13.2 -19.9 -4.8 -55.5 15.2 -64.6 3.3 -1.4 7.2 -2.1 14.6 -2.4 l10.1 -0.4 0.7 -6.7 c0.3 -3.6 0.6 -10.5 0.6 -15.3 l0 -8.8 7.9 0 c4.4 0 8.1 0.4 8.3 1 0.2 0.5 0.2 24.6 0 53.5 l-0.2 52.5 -8 0 -7.9 0 -0.3 -3 -0.3 -3 -6 4 c-5.6 3.8 -6.4 4 -13 3.9 -3.8 -0.1 -7.9 -0.4 -9 -0.6z m22 -20.5 l4.3 -4.3 0.4 -18 0.3 -18 -6.5 -0.3 c-8.1 -0.3 -13.1 2.3 -17.7 9.1 -6.9 10.3 -5.2 30.6 2.9 34.5 1.3 0.6 4.5 1.1 7.1 1.1 4.4 0.1 5.2 -0.3 9.2 -4.1z"/>
  <path d="M694.1 813 c-28.4 -4 -42.3 -48 -26.1 -82.8 6.2 -13.4 20.7 -24.3 34.3 -25.7 10.9 -1.2 22.8 2.9 31.1 10.6 4.4 4 10.1 14 11.2 19.4 0.6 3 0.5 3.1 -6.3 5.3 -3.8 1.2 -7.2 2.2 -7.5 2.2 -0.4 0 -1.7 -2.4 -3.1 -5.2 -4.9 -10.8 -11.6 -15.8 -20.9 -15.8 -11.1 0 -18.5 6.9 -23.1 21.4 -2.9 9.4 -3.2 30.3 -0.4 38.2 4.6 13.3 14.2 19.1 27.4 16.4 5.3 -1.1 6.4 -1.8 12.3 -8.1 3.6 -3.8 7.1 -6.9 7.8 -6.9 1 0 10.3 5.8 12.1 7.5 1 1.1 -5.7 10.1 -10.2 13.7 -11.4 9 -23 12 -38.6 9.8z"/>
  <path d="M1030 813.1 c0 -0.4 -3.3 -1.1 -7.2 -1.3 -11.3 -0.7 -19.1 -5.6 -25.8 -16 -4.8 -7.3 -6.4 -15.1 -5.8 -27.1 0.6 -11.3 3.4 -18.2 10.2 -25.5 6.4 -6.8 12.3 -9.6 21.6 -10 6.5 -0.3 8.1 0 12.3 2.2 7.9 4.2 11.7 7.8 14.6 13.6 3.5 6.9 5.1 14 5.1 23.2 l0 7.1 -24.1 -0.5 -24.1 -0.5 0.6 3.5 c0.8 4.9 4.8 10.6 8.9 12.5 4 1.9 13.1 2.2 17.4 0.6 1.5 -0.5 4.5 -2.7 6.6 -4.7 l3.7 -3.6 5.5 2.7 c3.2 1.5 5.5 3.3 5.5 4.2 0 2.5 -10 12.4 -15.7 15.7 -2.9 1.7 -5.6 3.4 -5.9 3.9 -0.7 1.2 -3.4 1.2 -3.4 0z m10 -52.7 c-1.8 -4.8 -3 -6.2 -6.5 -8.4 -2.9 -1.8 -4.7 -2.1 -8.9 -1.8 -6.4 0.5 -10.9 3.4 -13.6 8.9 l-2 3.9 16 0 16 0 -1 -2.6z"/>
  <path d="M357.3 812.2 l-7.3 -0.3 0 -52.5 0 -52.4 2.6 -1 c3.8 -1.5 20.9 -1.3 22.1 0.3 0.5 0.6 3.8 9.3 7.2 19.2 5.5 15.4 16.3 45.7 19.3 53.4 l0.9 2.4 1.5 -2.2 c2.6 -3.6 6.2 -13.1 16.4 -43.3 5.4 -15.7 10.1 -29.1 10.4 -29.7 0.5 -0.7 5 -1.1 12.2 -1.1 l11.4 0 0 52.3 c0 28.7 -0.4 52.8 -0.9 53.5 -0.5 0.9 -2.9 1.2 -8.2 1 l-7.4 -0.3 0.4 -28.5 c0.2 -15.7 0.8 -28.8 1.3 -29.1 0.5 -0.3 0.7 -6.6 0.6 -14 -0.2 -9.4 -0.6 -12.5 -1.1 -10.4 -0.5 1.7 -4.3 12 -8.4 23 -4.1 11 -10.4 27.9 -14 37.5 -7.2 19.5 -8.5 22 -11.4 22 -1.1 0 -1.8 -0.4 -1.5 -0.9 0.3 -0.5 -0.1 -1.1 -0.9 -1.5 -0.8 -0.3 -1.9 0.3 -2.4 1.2 -0.8 1.3 -1.4 1.4 -2.6 0.7 -2.1 -1.3 -13.1 -30.9 -23.2 -62.6 l-7.8 -24.7 -0.3 43.6 c-0.1 24 -0.6 43.9 -1 44.2 -0.4 0.3 -4 0.4 -7.9 0.2z m94.5 -68.7 c-0.4 -1.1 -0.6 7.9 -0.5 20 l0.1 22 0.6 -20 c0.3 -11 0.2 -20.9 -0.2 -22z"/>
  <path d="M785.5 811.6 c-17 -5.5 -26.5 -19.7 -26.5 -39.4 0 -27.1 23.4 -46.5 44.3 -36.8 9.2 4.2 13.2 7.9 16.9 15.3 3.3 6.7 3.3 6.9 3.3 20.3 -0.1 15 -1.6 20.6 -7.6 28.9 -6.6 9.2 -21.1 14.8 -30.4 11.7z m14 -18 c6.3 -4.2 10.2 -15.3 9.2 -26.4 -1.1 -11.8 -6.7 -18.2 -15.7 -18.2 -6.5 0 -10.8 3 -14.4 10.4 -4.8 9.4 -4.2 24.4 1.1 30.7 1.5 1.7 4.1 3.8 5.8 4.5 3.7 1.7 10.6 1.2 14 -1z"/>
  <path d="M1093.5 811.7 c-9.2 -3.6 -16 -10.4 -19.7 -19.6 -1.9 -4.7 -2.2 -7.5 -2.3 -18.1 0 -12.3 0.1 -12.6 3.6 -20 6.8 -14.3 17.4 -22 30.2 -22 8.3 0 15.4 3 21.4 9.1 3.9 3.9 7 8.6 6.2 9.2 -0.2 0.2 -3.1 2.3 -6.4 4.6 l-6 4.2 -2.7 -3.2 c-10.2 -12.1 -24.1 -7.6 -28.5 9.4 -3.4 13.3 0.6 26.7 8.9 29.6 7.5 2.6 14.3 0.8 21 -5.6 4 -3.9 3.7 -4 10.8 2.1 3.3 2.7 3.3 2.9 1.9 5.5 -2 3.6 -14.4 12.7 -19.8 14.6 -5.2 1.8 -14.3 1.8 -18.6 0.2z"/>
  <path d="M630.5 810.8 c-0.3 -0.7 -0.4 -17.5 -0.3 -37.3 l0.3 -36 8.2 -0.3 8.1 -0.3 -0.2 37.3 -0.2 37.3 -7.7 0.3 c-5.6 0.2 -7.9 -0.1 -8.2 -1z"/>
  <path d="M844.3 811.3 l-2.3 -0.4 0 -37 0 -36.9 8.5 0 c7.8 0 8.5 0.2 8.5 2 0 1.1 -0.7 2 -1.5 2 -1.7 0 -2 2.5 -0.5 3.5 0.6 0.3 1 0 1 -0.8 0 -0.8 2.8 -2.9 6.3 -4.8 11.2 -6 24.3 -4.2 33 4.4 4.8 4.9 5.2 7.8 5.2 40.7 l0 27.5 -7.7 0.3 -7.8 0.3 0 -26.7 0 -26.7 -3.6 -3.3 c-5.5 -5.2 -13.1 -4.3 -20.2 2.5 -1.7 1.7 -3.6 3.1 -4.2 3.1 -0.6 0 -1 9 -1 25.5 l0 25.5 -5.7 -0.1 c-3.2 -0.1 -6.8 -0.4 -8 -0.6z"/>
  <path d="M917.7 811.3 c-1.1 -1 -0.8 -68.9 0.3 -71.7 0.9 -2.5 1.3 -2.6 8.5 -2.6 l7.5 0 0.1 3.8 0.1 3.7 1.2 -2.8 c2 -4.6 8.5 -7.1 18.1 -7.1 6.2 0 8.9 0.5 12 2.1 5.3 2.8 9.1 6.9 10.8 11.8 1.5 4.1 2.4 29 1.9 52.3 l-0.2 11.2 -7.4 0 c-4.9 0 -7.8 -0.4 -8.3 -1.2 -0.4 -0.7 -0.6 -12.9 -0.5 -27 0.2 -14.1 0.1 -26.6 -0.3 -27.8 -1.8 -5.6 -13.2 -5.7 -21.2 0 -2.6 1.9 -5.1 3.9 -5.5 4.4 -0.4 0.6 -0.8 12.5 -0.8 26.4 l0 25.2 -7.8 0 c-4.3 0 -8.2 -0.3 -8.5 -0.7z"/>
  <path d="M1161.5 808.4 c-4.5 -2.4 -6.5 -4.5 -8.9 -8.9 -2 -3.8 -2.1 -5.1 -1.9 -27.7 l0.3 -23.8 -2.5 0 c-1.8 0 -2.5 -0.5 -2.5 -1.9 0 -1.1 -0.5 -2.3 -1.1 -2.7 -1.4 -0.8 -0.4 -7.5 1.3 -8.6 0.7 -0.4 2.3 -0.8 3.6 -0.8 2.5 0 6.2 -5.1 6.2 -8.6 0 -3.2 2.3 -4.6 7.2 -4.2 l4.3 0.3 0.3 6.8 0.3 6.8 2.7 -0.5 c1.5 -0.3 4.8 -0.8 7.5 -1.2 l4.7 -0.6 0 7.1 0 7.1 -5.7 0 c-7.2 0 -8.3 0.7 -8.3 5.1 0.1 1.9 -0.2 10.6 -0.6 19.5 -0.8 20 -0.5 20.9 6.9 20 l5.2 -0.7 3.3 6.3 3.2 6.2 -2 2 c-1.4 1.4 -4 2.3 -8.3 2.8 -3.4 0.4 -7.5 0.9 -9.2 1.2 -1.8 0.4 -4.2 0 -6 -1z"/>
  <path d="M636.5 724.2 c-2.2 -0.2 -4.4 -1 -4.8 -1.8 -0.5 -0.8 -0.9 -5 -1 -9.2 l-0.2 -7.7 9.3 -0.3 9.3 -0.3 -0.3 9.8 -0.3 9.8 -4 0 c-2.2 0 -5.8 -0.1 -8 -0.3z"/>
  <path d="M754.8 631.5 c-14.6 -2.8 -39.4 -14.5 -56.5 -26.7 -54.6 -39.2 -113.4 -96.9 -154.1 -151.2 -23.9 -31.9 -29.9 -44 -39 -79.1 -2.4 -9.1 -2.3 -45 0.1 -56.5 9.5 -44.9 36.4 -80.2 76.2 -100.3 23.9 -12.1 48.5 -16.1 75 -12.2 16.5 2.4 30.5 7 47.8 15.6 17.5 8.8 27.2 16.4 36 28.2 l5.1 6.9 2 -2.9 c3.7 -5.1 17 -18.5 24.5 -24.5 12.7 -10.2 32.4 -18.3 57.1 -23.5 11.2 -2.3 33.1 -2.3 45.2 0 18.2 3.6 40.5 13 52.8 22.3 12.4 9.3 29.5 26.9 36.1 37.1 16.5 25.6 23.4 49.3 23 80.3 -0.2 21 -1.4 31.2 -4.8 42.4 l-2.8 8.9 -13.5 0.2 c-10.3 0.2 -15.2 0.8 -20.8 2.4 -10.6 3.1 -18.8 7.6 -24.4 13.3 l-4.8 5 -6.1 -5.6 c-10.4 -9.4 -29.6 -18 -46.2 -20.6 -29.9 -4.9 -66.3 10.2 -85.2 35.2 -5.6 7.4 -12.8 22.1 -14.4 29.3 -0.6 2.8 -1.8 15.6 -2.7 28.5 -0.9 12.9 -1.8 24.2 -2.1 25 -1.3 3.7 -2.1 -3.9 -2.7 -25.8 -1.1 -35 -3.1 -45 -12.2 -58.9 -5.7 -8.8 -21.7 -24 -31.2 -29.7 -14.1 -8.4 -30.9 -14.2 -48.8 -16.8 -24 -3.5 -59.6 7.2 -82.4 24.7 -7.9 6.1 -16.8 15.3 -19.3 20 -2.4 4.7 -2.7 12.7 -0.6 16.7 1.7 3.2 24.9 30.3 40.7 47.6 52 56.8 118.6 112.1 144.9 120.2 3.6 1.1 11.1 2.2 17.6 2.6 15.9 0.9 23.1 -1.3 44.6 -13.9 36.3 -21.2 75.8 -61 116 -116.8 1.2 -1.7 1 -2.6 -1 -7.2 -1.9 -4.3 -2.3 -7 -2.3 -15.7 -0.1 -9.4 0.2 -11.1 2.6 -16.2 7.3 -15.7 23.8 -24.2 40.5 -20.8 18.5 3.7 31.8 23.7 29.2 43.5 -1.8 13.2 -7.9 22.1 -19.5 28.3 -5.7 3 -6.9 3.2 -15.5 3.2 -5.7 -0.1 -11 -0.7 -13.4 -1.6 -4.7 -1.7 -1.7 -4.8 -23.4 24.1 -28.4 37.9 -48 58.5 -73.5 77.5 -17.8 13.1 -36.3 25.3 -46 30.2 -14.6 7.4 -32.8 10.1 -47.8 7.3z m214.1 -158.8 c15.6 -10.3 7.3 -35.2 -11.8 -35.2 -11.5 0 -19.4 8 -19.4 19.5 0 11.9 8.3 19.4 20.9 18.7 4.7 -0.2 7.2 -0.9 10.3 -3z m-110.4 -91.2 c10.3 -2.6 18.2 -7.2 26 -14.9 17.4 -17.4 21.1 -39.4 10.4 -61.4 -8.4 -17.3 -26.8 -28.2 -47.6 -28.2 -15.1 0 -29.3 5.9 -38.7 16.1 -11.1 12 -15.2 23 -14.3 38.9 0.7 15.2 5.8 26.1 17 37 11.7 11.4 31.3 16.6 47.2 12.5z m-193.3 -15.9 c10.7 -2.3 17.4 -6.1 25.9 -14.5 18.6 -18.7 23.3 -45.5 11.6 -67.6 -6.9 -13 -21.3 -24.6 -34.7 -28 -8.7 -2.3 -24.1 -1.6 -32.4 1.3 -26.3 9.5 -42 37.1 -36.2 64.1 6.8 32.1 34.9 51.2 65.8 44.7z"/>
  <path d="M687.5 517.1 c-4.2 -2.6 -7.1 -6 -8.6 -10.4 -0.7 -2.1 -4.7 -7.7 -8.7 -12.5 -7.9 -9.3 -17.2 -22.8 -22.3 -32.2 -2.6 -5 -4.2 -6.5 -12.2 -11.6 -15.4 -10 -23.1 -19.1 -26.3 -31.4 -1.4 -5.5 -1.4 -6.6 0 -11.3 0.9 -3 2.5 -6.2 3.6 -7.2 1.8 -1.7 2.2 -1.7 3.6 -0.4 0.8 0.8 2.5 5.6 3.9 10.7 3 11.1 6.6 18.5 14.6 29.7 4.9 7 6.6 8.6 9.8 9.6 5.5 1.6 9.4 -0.6 19.4 -11.1 7.3 -7.6 9.3 -10.6 16 -23.8 8.2 -16 9.8 -17.7 14.2 -14.8 3.5 2.3 3.9 5.4 1.7 11.3 -2.7 7.3 -7.5 13.6 -14.3 19.3 -3.4 2.8 -7.3 6.5 -8.7 8.3 -3.2 3.8 -15.8 15.9 -17.8 17 -0.8 0.4 -1.4 1.2 -1.4 1.7 0 0.5 3.3 5.6 7.2 11.2 7 9.9 19 22.8 21.3 22.8 0.6 0 1.7 -1.5 2.3 -3.4 2.3 -6.3 10.5 -11.6 18 -11.6 3.9 0 12 4.8 13.8 8.1 2.4 4.7 2.1 13.8 -0.6 19.4 -5.5 11.4 -20 17.9 -28.5 12.6z"/>
 </g>
</svg>